{"title":"Anon 2018 720p BluRay x264 ESub [MW]","magnet":"magnet:?xt=urn:btih:d8b532c570595d0c7c5f67863702ef9acbcfdf1a&dn=Anon+2018+720p+BluRay+x264+ESub+%5BMW%5D&tr=udp%3A%2F%2Ftracker.leechers-paradise.org%3A6969&tr=udp%3A%2F%2Fzer0day.ch%3A1337&tr=udp%3A%2F%2Fopen.demonii.com%3A1337&tr=udp%3A%2F%2Ftracker.coppersurfer.tk%3A6969&tr=udp%3A%2F%2Fexodus.desync.com%3A6969","uploader":"MFreaky","categoryP":"video","categoryS":"hd___movies","size":"1175389655","seeders":"6","leechers":"4","description":" <a href=\"https://pichub.site/image/E1Vg8\" rel=\"nofollow\" target=\"_NEW\">https://pichub.site/image/E1Vg8</a> <a href=\"\nhttps://pichub.site/image/E1cnJ\" rel=\"nofollow\" target=\"_NEW\">\nhttps://pichub.site/image/E1cnJ</a> <a href=\"\nhttps://pichub.site/image/E1Cpj\" rel=\"nofollow\" target=\"_NEW\">\nhttps://pichub.site/image/E1Cpj</a> <a href=\"\nhttps://pichub.site/image/E1yth\" rel=\"nofollow\" target=\"_NEW\">\nhttps://pichub.site/image/E1yth</a> <a href=\"\nhttps://pichub.site/image/E1her\" rel=\"nofollow\" target=\"_NEW\">\nhttps://pichub.site/image/E1her</a>\r\n\r\nIMDB <a href=\"\nhttps://www.imdb.com/title/tt5397194/\" rel=\"nofollow\" target=\"_NEW\">\nhttps://www.imdb.com/title/tt5397194/</a>\r\n\r\nVideo\r\nFormat                                   : AVC\r\nFormat/Info                              : Advanced Video Codec\r\nFormat profile                           : High@L4.1\r\nFormat settings                          : CABAC / 4 Ref Frames\r\nFormat settings, CABAC                   : Yes\r\nFormat settings, RefFrames               : 4 frames\r\nCodec ID                                 : V_MPEG4/ISO/AVC\r\nDuration                                 : 1 h 39 min\r\nBit rate                                 : 1 500 kb/s\r\nWidth                                    : 1 280 pixels\r\nHeight                                   : 536 pixels\r\nDisplay aspect ratio                     : 2.40:1\r\nFrame rate mode                          : Constant\r\nFrame rate                               : 23.976 (24000/1001) FPS\r\nColor space                              : YUV\r\nChroma subsampling                       : 4:2:0\r\nBit depth                                : 8 bits\r\nBits/(Pixel*Frame)                       : 0.091\r\nStream size                              : 1.00 GiB (92%)\r\nWriting library                          : x264 core 155 r2901 7d0ff22\r\n\r\nAudio\r\nFormat                                   : AAC\r\nFormat/Info                              : Advanced Audio Codec\r\nFormat profile                           : HE-AAC / LC\r\nFormat settings                          : Explicit\r\nCodec ID                                 : A_AAC-2\r\nDuration                                 : 1 h 39 min\r\nBit rate                                 : 127 kb/s\r\nChannel(s)                               : 2 channels\r\nChannel positions                        : Front: L R\r\nSampling rate                            : 48.0 kHz / 24.0 kHz\r\nFrame rate                               : 23.438 FPS (1024 SPF)\r\nStream size                              : 90.5 MiB (8%)\r\nLanguage                                 : English","last_updated":"2018-10-01T12:13:08.953Z","parsed":{"xt":"urn:btih:d8b532c570595d0c7c5f67863702ef9acbcfdf1a","dn":"Anon 2018 720p BluRay x264 ESub [MW]","tr":["udp://exodus.desync.com:6969","udp://open.demonii.com:1337","udp://tracker.coppersurfer.tk:6969","udp://tracker.leechers-paradise.org:6969","udp://zer0day.ch:1337"],"infoHash":"d8b532c570595d0c7c5f67863702ef9acbcfdf1a","infoHashBuffer":{"type":"Buffer","data":[216,181,50,197,112,89,93,12,124,95,103,134,55,2,239,154,203,207,223,26]},"name":"Anon 2018 720p BluRay x264 ESub [MW]","announce":["udp://exodus.desync.com:6969","udp://open.demonii.com:1337","udp://tracker.coppersurfer.tk:6969","udp://tracker.leechers-paradise.org:6969","udp://zer0day.ch:1337"],"urlList":[]}}